HIERARCHY
ROOT Hips
{
	OFFSET -0.179506 -22.333345 2.821913
	CHANNELS 6 Xposition Yposition Zposition Zrotation Yrotation Xrotation 
	JOINT LeftUpLeg
	{
		OFFSET 6.951974 -9.140623 -0.681533
		CHANNELS 3 Zrotation Yrotation Xrotation
		JOINT LeftLeg
		{
			OFFSET 3.427654 -37.519855 -0.449580
			CHANNELS 3 Zrotation Yrotation Xrotation
			JOINT LeftFoot
			{
				OFFSET -1.359570 -39.796059 -4.369333
				CHANNELS 3 Zrotation Yrotation Xrotation
				JOINT LeftToe
				{
					OFFSET 2.635814 -5.579078 11.928840
					CHANNELS 3 Zrotation Yrotation Xrotation
					End Site
					{
						OFFSET 0.000000 0.000000 0.000000
					}
				}
			}
		}
	}
	JOINT RightUpLeg
	{
		OFFSET -6.767048 -9.052170 -0.431982
		CHANNELS 3 Zrotation Yrotation Xrotation
		JOINT RightLeg
		{
			OFFSET -3.829005 -38.256897 -0.885003
			CHANNELS 3 Zrotation Yrotation Xrotation
			JOINT RightFoot
			{
				OFFSET 1.577377 -39.841461 -4.231180
				CHANNELS 3 Zrotation Yrotation Xrotation
				JOINT RightToe
				{
					OFFSET -2.537174 -4.814398 12.334795
					CHANNELS 3 Zrotation Yrotation Xrotation
					End Site
					{
						OFFSET 0.000000 0.000000 0.000000
					}
				}
			}
		}
	}
	JOINT Spine
	{
		OFFSET -0.253288 10.896323 -2.669631
		CHANNELS 3 Zrotation Yrotation Xrotation
		JOINT Spine1
		{
			OFFSET 0.548704 13.518043 0.109247
			CHANNELS 3 Zrotation Yrotation Xrotation
			JOINT Spine2
			{
				OFFSET 0.145701 5.292222 2.542457
				CHANNELS 3 Zrotation Yrotation Xrotation
				JOINT Neck
				{
					OFFSET -0.277840 21.387037 -4.285703
					CHANNELS 3 Zrotation Yrotation Xrotation
					JOINT Head
					{
						OFFSET 0.515184 6.496960 5.134897
						CHANNELS 3 Zrotation Yrotation Xrotation
						End Site
						{
							OFFSET 0.000000 0.000000 0.000000
						}
					}
				}
				JOINT LeftShoulder
				{
					OFFSET 7.884473 12.174932 -3.408961
					CHANNELS 3 Zrotation Yrotation Xrotation
					JOINT LeftArm
					{
						OFFSET 9.097692 3.046888 -0.886815
						CHANNELS 3 Zrotation Yrotation Xrotation
						JOINT LeftForeArm
						{
							OFFSET 25.961220 -1.277207 -2.745643
							CHANNELS 3 Zrotation Yrotation Xrotation
							JOINT LeftHand
							{
								OFFSET 24.923361 0.898606 -0.117091
								CHANNELS 3 Zrotation Yrotation Xrotation
								End Site
								{
									OFFSET 0.000000 0.000000 0.000000
								}
							}
						}
					}
				}
				JOINT RightShoulder
				{
					OFFSET -8.175920 11.883285 -3.861528
					CHANNELS 3 Zrotation Yrotation Xrotation
					JOINT RightArm
					{
						OFFSET -9.601238 3.255117 -0.914307
						CHANNELS 3 Zrotation Yrotation Xrotation
						JOINT RightForeArm
						{
							OFFSET -25.374195 -1.332924 -2.140099
							CHANNELS 3 Zrotation Yrotation Xrotation
							JOINT RightHand
							{
								OFFSET -25.529810 0.777228 -0.555919
								CHANNELS 3 Zrotation Yrotation Xrotation
								End Site
								{
									OFFSET 0.000000 0.000000 0.000000
								}
							}
						}
					}
				}
			}
		}
	}
}
MOTION
Frames: 6
Frame Time: 0.033333
-12.179624 -2.115269 89.848015 -134.515827 1.437120 90.224816 8.830839 7.872195 8.692093 -3.591866 0.981662 -4.142988 0.086858 10.901401 -13.722117 nan nan nan -10.721531 -8.076870 -6.071220 4.981540 -9.022067 0.520057 6.353323 -4.586026 1.150329 nan nan nan -6.087035 -0.372390 -5.363071 6.708629 -5.932585 12.286119 0.004600 -1.066496 -6.294721 0.824653 -18.365221 13.247848 4.724644 -15.757924 8.525823 -22.539824 -0.633065 5.975650 -56.624352 -21.273584 28.529888 -40.739291 -82.729379 58.630686 -7.728766 -27.304416 -7.059121 23.902752 1.235284 -2.869749 47.056004 8.009810 6.008161 -38.384782 45.107167 -33.790120 3.710957 10.450820 -9.781470 
-12.339565 -2.181842 89.860855 -133.702413 1.510850 90.088949 8.886432 7.664721 8.665823 -3.547852 0.472396 -4.019329 0.049319 10.793510 -13.918802 nan nan nan -10.913282 -8.391389 -5.283602 5.235462 -9.226970 -0.057909 6.563283 -4.725498 1.191487 nan nan nan -5.966734 -0.297299 -5.782517 6.759784 -6.336111 12.900553 0.046731 -1.200948 -6.266926 0.601100 -18.631113 13.322215 4.632701 -15.757422 8.556591 -22.747546 -1.305729 6.175546 -56.486563 -22.036974 28.371647 -42.300740 -82.877575 60.542282 -8.687248 -26.656180 -5.753334 23.606339 1.561030 -2.965742 46.786708 7.906623 5.497496 -39.091250 45.206851 -34.700651 4.087635 10.306506 -9.370568 
-12.343106 -2.200027 89.751617 -133.648491 1.505326 89.594450 9.209908 7.699232 9.305295 -3.891043 0.433503 -4.157436 0.471571 10.536394 -13.912444 nan nan nan -11.041466 -8.391648 -4.584876 5.319703 -9.399967 -0.116850 6.182085 -4.307483 0.768716 nan nan nan -6.063297 -0.338235 -5.097165 7.067789 -6.446819 14.326260 0.032646 -1.210622 -7.763669 1.134495 -18.030040 12.355258 3.658526 -16.698338 8.352997 -21.824084 -0.568429 5.702109 -57.906440 -22.733320 29.141690 -45.251897 -83.647730 63.674478 -9.246225 -27.085228 -5.321015 22.297873 1.254556 -3.114907 48.153466 8.646872 6.167490 -40.171591 45.042176 -35.549615 3.950241 10.474779 -10.197329 
-12.375504 -2.285747 89.749077 -133.616545 1.422855 89.556062 9.074637 7.545920 9.388123 -3.895410 0.446970 -4.325324 0.599479 10.592743 -13.801477 nan nan nan -11.148545 -8.439767 -4.527343 5.301001 -9.419866 -0.143610 6.283724 -4.298526 0.844888 nan nan nan -6.072722 -0.363942 -5.169224 6.986119 -6.448605 14.206712 -0.029247 -1.121032 -7.527435 1.107538 -18.084422 12.201517 3.685332 -16.797789 8.578464 -21.280848 -0.815517 5.514188 -58.462149 -23.333713 29.478286 -44.701649 -83.922880 62.246849 -8.571312 -27.735343 -7.664322 22.000892 1.400390 -3.193914 48.316368 9.099863 6.082728 -40.564047 44.677151 -35.911367 3.977093 10.303767 -9.909968 
-12.410303 -2.378441 89.746796 -133.531431 1.367770 89.463858 8.965638 7.454976 9.498789 -3.884419 0.455633 -4.427105 0.611317 10.596935 -13.731229 nan nan nan -11.249623 -8.491518 -4.418337 5.280011 -9.379748 -0.133922 6.354545 -4.382699 0.882820 nan nan nan -6.015624 -0.341372 -5.166634 6.886826 -6.466199 14.112461 -0.095080 -1.086124 -7.352181 1.034077 -18.209413 12.118656 3.693730 -16.770070 8.760039 -20.952923 -1.054728 5.408310 -58.850695 -24.061313 29.701067 -47.080601 -84.415430 64.154810 -9.268213 -27.441320 -8.292028 21.825433 1.511772 -3.194833 48.203050 9.613150 5.996012 -41.065437 44.266308 -35.817180 4.679618 9.756065 -8.971835 
-12.377805 -2.424949 89.679520 -133.426625 1.279150 88.959537 9.093611 7.228841 10.082484 -4.217920 0.427691 -4.592445 1.196073 10.602617 -13.441145 nan nan nan -11.511356 -8.271430 -3.828126 5.354770 -9.613849 -0.146977 5.768175 -4.051627 0.555741 nan nan nan -6.144067 -0.352544 -5.063639 6.844366 -7.040024 18.320873 -0.376990 -0.848651 -11.222761 1.427979 -17.908989 11.183281 2.529623 -17.300235 9.782843 -19.769099 0.168089 5.521939 -61.916615 -24.714193 31.091527 -53.948043 -86.749174 69.876377 -13.591932 -22.779928 -6.723995 21.615892 1.070842 -2.950059 48.721141 10.810362 7.469857 -42.774027 43.122729 -37.599814 6.534580 8.245124 -7.527427 
